#!OML:ASF F:\twosubjects\two\Thursday\Session 1\Rory.ASF
:FULLY-SPECIFIED
:DEGREES
340
root 22.4863 17.3136 -9.57621 -169.464 -63.5557 181.475
lowerback 21.9166 0.726861 -1.37827
upperback 9.39195 -0.465095 -2.74763
thorax -2.02699 -0.624439 -2.0303
lowerneck -2.37682 16.9477 9.94928
upperneck -11.2231 21.5042 -23.9981
head 0.985321 10.9823 -7.7948
rclavicle -4.6118e-014 -5.00937e-014
rhumerus -35.8169 -3.41242 -79.2838
rradius 65.4231
rwrist 6.75357
rhand -19.1661 24.8802
rfingers 7.12502
rthumb 7.14482 -4.9792
lclavicle -4.6118e-014 -5.00937e-014
lhumerus 6.65871 29.7191 73.8499
lradius 95.7732
lwrist -32.2092
lhand -18.9615 41.5165
lfingers 7.12502
lthumb 7.34233 71.3691
rfemur -45.0985 -11.8057 18.9013
rtibia 64.0856
rfoot -8.84833 -6.27181
rtoes -29.7335
lfemur -42.9313 11.3077 -22.3484
ltibia 58.5864
lfoot -23.0945 -1.48957
ltoes -4.35028
341
root 22.4603 17.2932 -9.64609 -169.437 -64.007 181.198
lowerback 21.7554 0.968185 -2.29193
upperback 9.55929 -0.28924 -1.97733
thorax -1.75701 -0.579787 -0.72892
lowerneck -2.01077 16.8268 9.47271
upperneck -11.2695 21.3234 -24.413
head 0.888078 10.9397 -7.91211
rclavicle -2.26615e-014 -3.26007e-014
rhumerus -35.6165 -3.38766 -77.9077
rradius 65.306
rwrist 6.91107
rhand -19.2857 24.877
rfingers 7.12502
rthumb 7.02936 -4.98626
lclavicle -2.26615e-014 -3.26007e-014
lhumerus 7.49581 29.7694 75.7719
lradius 95.3946
lwrist -32.6368
lhand -18.3653 41.6081
lfingers 7.12502
lthumb 7.91776 71.4399
rfemur -45.6727 -12.1647 18.3857
rtibia 65.6126
rfoot -7.49075 -4.45115
rtoes -27.9202
lfemur -42.7509 10.5976 -22.8819
ltibia 57.065
lfoot -23.2828 -4.69021
ltoes -1.99498
342
root 22.4316 17.2565 -9.7284 -169.542 -64.306 181.034
lowerback 21.7455 1.06759 -2.72239
upperback 9.62275 -0.232296 -1.69078
thorax -1.68108 -0.571787 -0.192432
lowerneck -2.03001 16.7564 9.23963
upperneck -10.9992 21.2668 -24.2596
head 0.912048 10.9032 -7.83232
rclavicle 2.94201e-014 -2.46493e-014
rhumerus -35.6781 -3.7787 -77.4187
rradius 65.2985
rwrist 7.11245
rhand -20.0535 25.0755
rfingers 7.12502
rthumb 6.28817 -4.81121
lclavicle 2.94201e-014 -2.46493e-014
lhumerus 8.09528 29.332 76.6624
lradius 94.9121
lwrist -33.4034
lhand -18.0425 43.4622
lfingers 7.12502
lthumb 8.22928 73.2819
rfemur -46.2067 -12.2557 17.8626
rtibia 67.1243
rfoot -5.88388 -2.75252
rtoes -26.5923
lfemur -42.4518 10.0984 -23.2856
ltibia 55.4164
lfoot -22.8537 -5.87899
ltoes -0.226843
343
root 22.3995 17.2017 -9.81245 -170.336 -64.5009 181.674
lowerback 21.6513 1.05444 -2.69686
upperback 9.699 -0.234235 -1.51127
thorax -1.55079 -0.579357 -0.0159802
lowerneck -2.12082 16.8107 9.04313
upperneck -10.6745 21.3997 -23.8999
head 0.968268 10.9513 -7.66611
rclavicle -1.19271e-014 2.3059e-014
rhumerus -35.4915 -3.93389 -77.2026
rradius 65.1481
rwrist 6.98826
rhand -20.4233 24.8987
rfingers 7.12502
rthumb 5.93112 -4.99827
lclavicle -1.19271e-014 2.3059e-014
lhumerus 8.55799 29.1392 77.0224
lradius 94.4832
lwrist -33.7708
lhand -17.7218 43.9018
lfingers 7.12502
lthumb 8.53881 73.7091
rfemur -46.7442 -12.0725 17.6919
rtibia 68.5151
rfoot -3.91374 -1.31111
rtoes -24.6898
lfemur -42.1834 9.85755 -23.2962
ltibia 53.9763
lfoot -22.3415 -6.12629
ltoes 5.55946
344
root 22.3631 17.1699 -9.89573 -171.422 -64.5453 182.406
lowerback 21.5994 1.16959 -2.91778
upperback 9.83374 -0.122737 -1.17066
thorax -1.37927 -0.547524 0.446142
lowerneck -1.92733 16.8901 8.88061
upperneck -10.4181 21.5646 -23.7756
head 0.999688 11.0398 -7.59609
rclavicle -2.22639e-014 -3.4191e-014
rhumerus -35.1771 -3.87261 -76.6439
rradius 64.8035
rwrist 7.03501
rhand -19.906 25.1573
rfingers 7.12502
rthumb 6.43053 -4.72508
lclavicle -2.22639e-014 -3.4191e-014
lhumerus 9.38481 29.4144 78.051
lradius 94.101
lwrist -34.1619
lhand -17.0706 42.8179
lfingers 7.12502
lthumb 9.16721 72.5986
rfemur -46.979 -11.7078 17.4582
rtibia 69.7262
rfoot -2.15338 0.0817516
rtoes -23.5757
lfemur -41.5232 9.38716 -23.0259
ltibia 52.8338
lfoot -21.5489 -5.20119
ltoes 13.7853
345
root 22.3275 17.2069 -9.97262 -171.986 -64.5824 182.548
lowerback 22.3128 0.507017 -0.894421
upperback 9.4879 -0.689818 -2.95461
thorax -2.13018 -0.727132 -2.47639
lowerneck -1.80602 16.9971 10.3578
upperneck -10.0351 21.8552 -22.2951
head 1.09658 11.1181 -7.32346
rclavicle -3.97569e-015 -1.19271e-014
rhumerus -35.9351 -5.25337 -78.9373
rradius 64.7184
rwrist 7.84658
rhand -18.8218 25.6451
rfingers 7.12502
rthumb 7.47714 -4.20273
lclavicle -3.97569e-015 -1.19271e-014
lhumerus 10.2565 28.8053 76.2256
lradius 93.4528
lwrist -34.5038
lhand -16.0968 41.5728
lfingers 7.12502
lthumb 10.1068 71.31
rfemur -47.0252 -11.4013 16.8856
rtibia 70.5706
rfoot -0.716089 1.7226
rtoes -22.4797
lfemur -40.3857 8.33352 -22.554
ltibia 52.5927
lfoot -20.6598 1.94794
ltoes 11.2427
346
root 22.2911 17.2019 -10.0369 -172.488 -64.6885 182.847
lowerback 22.3342 0.429729 -0.629857
upperback 9.36583 -0.728805 -3.05003
thorax -2.27715 -0.732785 -2.71985
lowerneck -1.67321 16.9386 10.2769
upperneck -9.69665 21.8456 -21.5428
head 1.05835 11.1015 -7.10556
rclavicle 3.4191e-014 -4.77083e-015
rhumerus -36.2111 -5.47757 -78.7733
rradius 64.883
rwrist 8.05904
rhand -18.0596 25.6004
rfingers 7.12502
rthumb 8.2128 -4.21999
lclavicle 3.4191e-014 -4.77083e-015
lhumerus 10.6494 28.5232 76.3746
lradius 93.1033
lwrist -34.7271
lhand -16.1895 41.0709
lfingers 7.12502
lthumb 10.0174 70.8125
rfemur -47.4061 -11.2865 16.3931
rtibia 71.3928
rfoot 0.34636 3.10197
rtoes -20.8053
lfemur -39.747 6.87275 -21.853
ltibia 52.8953
lfoot -20.8821 3.75565
ltoes 12.7639
347
root 22.2561 17.1498 -10.0967 -173.326 -64.7251 183.618
lowerback 22.2528 0.248576 -0.348169
upperback 9.24134 -0.880096 -2.96548
thorax -2.37983 -0.794665 -2.75297
lowerneck -1.64813 17.0208 9.83291
upperneck -9.33835 22.0149 -20.8243
head 1.03388 11.1782 -6.82202
rclavicle -7.23576e-014 2.78299e-014
rhumerus -36.1617 -5.12106 -78.6544
rradius 64.6369
rwrist 8.14743
rhand -18.375 25.411
rfingers 7.12502
rthumb 7.90839 -4.42106
lclavicle -7.23576e-014 2.78299e-014
lhumerus 10.4487 28.4621 75.8346
lradius 92.8396
lwrist -34.4658
lhand -16.6503 41.1317
lfingers 7.12502
lthumb 9.57273 70.8942
rfemur -47.8966 -10.9959 16.1304
rtibia 72.1206
rfoot 0.423615 2.97482
rtoes -21.7257
lfemur -39.526 5.49446 -20.9137
ltibia 53.7163
lfoot -21.8103 1.92885
ltoes 16.7903
348
root 22.2258 17.0788 -10.1696 -173.404 -64.5657 183.445
lowerback 22.2448 0.248146 -0.492454
upperback 9.12288 -0.908075 -3.08335
thorax -2.50638 -0.806829 -2.78961
lowerneck -1.45498 17.0666 9.94791
upperneck -9.03594 22.1375 -20.5671
head 1.08586 11.2347 -6.75417
rclavicle -1.11319e-014 -4.37326e-014
rhumerus -36.181 -5.24279 -78.6955
rradius 64.3448
rwrist 8.37443
rhand -19.0464 25.1212
rfingers 7.12502
rthumb 7.26041 -4.73428
lclavicle -1.11319e-014 -4.37326e-014
lhumerus 10.3482 28.1593 75.1583
lradius 92.5714
lwrist -34.2782
lhand -16.0363 41.0852
lfingers 7.12502
lthumb 10.1651 70.8197
rfemur -48.2136 -10.5239 15.4264
rtibia 72.7256
rfoot -0.509696 1.11601
rtoes -24.1412
lfemur -39.272 4.57024 -20.4916
ltibia 54.5623
lfoot -22.7809 -2.57681
ltoes 24.5652
